<?xml version="1.0" standalone="no"?>
<!DOCTYPE svg PUBLIC "-//W3C//DTD SVG 20010904//EN"
 "http://www.w3.org/TR/2001/REC-SVG-20010904/DTD/svg10.dtd">
<svg version="1.0" xmlns="http://www.w3.org/2000/svg"
 width="1200.000000pt" height="1200.000000pt" viewBox="0 0 1200.000000 1200.000000"
 preserveAspectRatio="xMidYMid meet">
<metadata>
Created by potrace 1.10, written by Peter Selinger 2001-2011
</metadata>
<g transform="translate(0.000000,1200.000000) scale(0.100000,-0.100000)"
fill="#ffffff" stroke="none">
<path d="M535 11731 c-127 -42 -220 -141 -260 -274 -13 -44 -15 -296 -15
-2092 0 -1839 2 -2047 16 -2096 39 -134 138 -231 272 -270 59 -17 101 -19 354
-19 247 0 289 -2 302 -16 9 -8 17 -16 18 -17 2 -1 5 -1028 8 -2282 l5 -2280
33 -70 c59 -125 173 -214 302 -234 36 -6 183 -11 326 -11 241 0 264 -2 285
-19 23 -18 23 -22 27 -262 4 -201 8 -252 23 -296 23 -68 68 -133 122 -176 57
-47 90 -62 174 -81 65 -14 280 -16 2275 -16 1371 0 2209 -4 2218 -10 20 -12
28 -129 29 -418 1 -258 9 -297 74 -394 46 -68 118 -123 201 -154 50 -18 109
-19 2071 -19 l2020 0 59 23 c133 52 220 149 252 281 20 84 20 4082 0 4157 -38
145 -149 257 -286 292 -26 6 -162 13 -324 15 -257 3 -280 5 -292 22 -12 16
-14 361 -14 2069 0 1889 -2 2218 -15 2393 -9 124 -98 247 -220 304 -85 40
-160 49 -406 49 -189 0 -218 2 -230 17 -11 12 -15 80 -20 297 -4 190 -10 293
-18 317 -36 99 -135 198 -241 242 l-55 22 -2252 5 c-2145 5 -2253 6 -2270 23
-16 16 -18 47 -21 350 -2 281 -5 339 -20 377 -36 99 -123 193 -220 238 l-57
27 -2090 2 c-1929 1 -2094 0 -2140 -16z m4125 -891 c3 -278 6 -506 8 -507 1
-2 1089 -3 2417 -3 2377 0 2414 0 2425 -19 6 -13 10 -173 10 -450 l0 -431 421
0 c271 0 427 -4 440 -10 19 -11 19 -48 19 -2410 0 -1908 3 -2400 13 -2407 6
-4 215 -10 462 -13 l450 -5 0 -1975 0 -1975 -1930 0 -1930 0 -3 486 c-2 395
-5 489 -16 498 -10 8 -652 11 -2409 11 -1317 0 -2402 3 -2411 6 -14 5 -16 51
-16 420 0 349 -2 415 -14 420 -8 3 -224 6 -481 7 -402 2 -467 4 -475 17 -6 9
-7 938 -3 2436 l6 2421 -24 16 c-21 15 -71 17 -475 17 -249 0 -459 3 -468 6
-15 6 -16 188 -16 1970 0 1859 1 1964 18 1973 11 7 664 10 1997 8 l1980 -2 5
-505z"/>
<path d="M1292 10743 c-15 -25 -3 -2756 12 -2765 6 -4 630 -8 1387 -8 1246 0
1377 1 1383 16 8 20 8 2738 0 2758 -6 15 -137 16 -1390 16 -1278 0 -1384 -1
-1392 -17z m2053 -1443 l0 -755 -180 -3 c-161 -2 -181 -1 -193 15 -10 14 -11
79 -6 303 4 196 3 294 -5 313 l-11 27 -322 0 c-186 0 -329 -4 -338 -10 -13 -8
-15 -55 -16 -315 -1 -168 -5 -312 -8 -320 -4 -13 -37 -15 -199 -15 -137 0
-196 3 -205 12 -9 9 -12 187 -12 743 0 401 4 736 8 743 7 9 55 12 208 10 l199
-3 2 -315 c3 -307 3 -315 24 -332 19 -16 51 -18 333 -18 178 0 317 4 326 10
13 8 15 57 17 327 2 175 3 321 3 325 0 11 28 13 205 13 l170 0 0 -755z"/>
<path d="M4672 9418 c-9 -9 -12 -181 -12 -714 0 -386 3 -709 6 -718 6 -15 162
-16 1673 -16 1283 0 1670 -3 1679 -12 9 -9 12 -396 12 -1680 0 -1638 0 -1667
19 -1678 13 -7 258 -10 726 -10 468 0 713 3 726 10 19 11 19 48 19 2405 0
2163 -2 2395 -16 2409 -14 14 -247 16 -2418 16 -1855 0 -2405 -3 -2414 -12z"/>
<path d="M2620 7380 c-13 -8 -15 -289 -13 -2440 1 -1858 5 -2435 14 -2446 10
-12 344 -14 2415 -14 2366 0 2403 0 2414 19 16 31 14 1472 -2 1494 -12 16
-127 17 -1688 20 l-1675 2 -5 1675 c-3 921 -9 1681 -13 1688 -10 15 -1423 18
-1447 2z"/>
<path d="M4712 7372 c-10 -7 -13 -284 -14 -1382 -1 -1329 -1 -1373 17 -1386
16 -12 244 -14 1366 -14 1212 0 1349 2 1363 16 14 14 16 153 16 1383 0 1050
-3 1370 -12 1379 -9 9 -326 12 -1367 12 -746 0 -1362 -4 -1369 -8z m1746 -605
c8 -6 12 -40 12 -102 0 -64 4 -96 13 -103 7 -6 56 -13 108 -14 l94 -3 5 -95
c3 -52 9 -101 13 -107 6 -9 37 -13 97 -13 67 0 92 -4 104 -16 14 -14 16 -77
16 -544 0 -467 -2 -530 -16 -544 -13 -14 -47 -16 -213 -16 -153 0 -201 3 -210
13 -7 9 -12 89 -13 223 l-3 209 -320 3 c-292 2 -321 1 -332 -15 -10 -12 -13
-73 -13 -219 0 -201 0 -202 -22 -208 -39 -10 -378 -7 -399 4 -18 10 -19 27
-19 548 0 405 3 541 12 550 7 7 44 12 98 12 54 0 91 5 98 12 7 7 12 44 12 94
0 45 3 89 6 98 5 13 24 16 100 16 118 0 124 6 124 131 0 60 4 89 13 93 22 9
621 3 635 -7z"/>
<path d="M6040 6550 c-11 -7 -16 -36 -20 -112 l-5 -103 -95 -3 c-75 -2 -98 -6
-107 -19 -9 -12 -13 -71 -13 -208 0 -137 4 -196 13 -208 11 -16 40 -17 332
-15 l320 3 0 220 0 220 -95 5 c-52 3 -101 9 -107 13 -9 6 -13 38 -13 101 0 58
-4 96 -12 104 -14 14 -176 16 -198 2z"/>
<path d="M8072 3988 c-9 -9 -12 -330 -12 -1385 0 -1350 0 -1372 19 -1383 29
-15 2659 -14 2678 1 18 16 20 2748 1 2767 -17 17 -2669 17 -2686 0z m966 -571
c9 -7 12 -62 12 -211 0 -144 3 -205 12 -214 8 -8 45 -12 99 -12 115 0 119 -4
119 -119 0 -54 4 -91 12 -99 13 -13 163 -17 192 -6 13 5 16 24 16 99 0 122 3
125 119 125 54 0 91 4 99 12 9 9 12 70 12 213 0 143 3 204 12 213 9 9 69 12
208 12 139 0 199 -3 208 -12 17 -17 17 -414 0 -425 -7 -4 -56 -10 -108 -13
l-95 -5 -5 -95 c-3 -52 -9 -101 -13 -107 -6 -9 -36 -13 -94 -13 -116 0 -123
-6 -123 -116 0 -110 5 -114 120 -114 108 0 110 -2 110 -124 0 -57 4 -87 13
-93 6 -4 55 -10 107 -13 l95 -5 3 -204 c2 -142 -1 -208 -9 -217 -15 -19 -399
-20 -417 -2 -9 9 -12 70 -12 215 0 238 8 223 -124 223 -104 0 -106 3 -106 124
0 102 -4 106 -110 106 -106 0 -110 -4 -110 -106 0 -123 -1 -124 -113 -124 -59
0 -97 -4 -105 -12 -9 -9 -12 -70 -12 -213 0 -143 -3 -204 -12 -213 -18 -18
-402 -17 -417 2 -8 9 -11 75 -9 217 l3 204 100 5 c94 5 100 6 113 30 8 16 12
49 9 97 -6 102 -4 103 109 103 93 0 95 1 104 26 14 36 5 185 -12 195 -7 5 -52
9 -100 9 -104 0 -107 3 -101 99 3 36 0 78 -6 94 -10 27 -12 27 -96 27 -133 0
-125 -15 -125 225 0 184 2 205 18 214 22 14 392 12 410 -2z"/>
</g>
</svg>
