<?xml version="1.0" standalone="no"?>
<!DOCTYPE svg PUBLIC "-//W3C//DTD SVG 20010904//EN"
 "http://www.w3.org/TR/2001/REC-SVG-20010904/DTD/svg10.dtd">
<svg version="1.0" xmlns="http://www.w3.org/2000/svg"
 width="700.000000pt" height="700.000000pt" viewBox="0 0 700.000000 700.000000"
 preserveAspectRatio="xMidYMid meet">
<metadata>
Created by potrace 1.14, written by Peter Selinger 2001-2017
</metadata>
<g transform="translate(0.000000,700.000000) scale(0.100000,-0.100000)"
fill="#000000" stroke="none">
<path d="M520 6850 c-203 -5 -217 -6 -252 -28 -50 -31 -93 -88 -105 -139 -7
-28 -10 -444 -9 -1240 1 -1318 -3 -1228 61 -1296 59 -62 93 -70 295 -75 102
-2 189 -8 194 -13 6 -5 11 -543 13 -1340 3 -1278 4 -1332 22 -1367 29 -56 88
-109 140 -126 32 -11 96 -16 214 -18 129 -1 170 -5 179 -16 11 -13 13 -36 19
-224 3 -119 44 -189 135 -230 49 -22 54 -22 664 -25 338 -2 927 -3 1308 -3
l693 -1 8 -22 c5 -12 11 -103 13 -202 4 -159 6 -185 25 -220 26 -50 67 -89
118 -114 39 -19 75 -19 1222 -21 1175 -1 1182 -1 1225 20 58 28 93 60 120 112
l23 43 0 1215 0 1215 -29 52 c-28 51 -75 92 -126 111 -14 5 -70 10 -125 12
-200 4 -235 6 -246 17 -7 7 -12 404 -15 1299 -2 709 -6 1300 -8 1314 -8 47
-25 79 -64 118 -57 57 -112 72 -281 76 -78 2 -146 7 -151 12 -4 5 -11 85 -14
177 -6 187 -14 216 -72 267 -19 16 -51 38 -72 48 -35 18 -87 19 -1127 21
-1281 3 -1543 5 -1552 14 -3 4 -8 98 -11 209 -4 224 -9 244 -74 304 -72 69 10
64 -1120 67 -563 1 -1120 0 -1238 -3z m2197 -390 c1 -85 2 -217 3 -292 l2
-138 31 -1 c18 0 652 -2 1409 -3 757 -1 1379 -4 1383 -7 3 -4 6 -122 7 -263
l2 -256 247 0 c188 0 250 -3 256 -12 4 -7 9 -636 10 -1398 2 -762 5 -1390 7
-1396 4 -11 89 -15 376 -18 l155 -2 0 -1149 0 -1150 -1125 0 -1125 0 -3 275
c-1 151 -4 280 -7 287 -3 10 -248 13 -1097 13 -1596 1 -1718 2 -1719 14 -1 6
-3 112 -5 235 -1 123 -5 229 -7 235 -4 9 -79 13 -278 15 -165 1 -276 6 -280
12 -3 5 -5 644 -4 1419 1 1052 -1 1413 -10 1420 -6 5 -129 10 -281 12 l-269 3
-5 85 c-8 134 -5 2194 3 2207 6 9 287 11 1165 10 l1157 -2 2 -155z"/>
<path d="M770 6268 l-22 -8 4 -795 c2 -536 7 -798 14 -805 7 -7 262 -10 810
-8 l799 3 2 808 c2 633 0 807 -10 808 -54 6 -1581 3 -1597 -3z m1180 -843 l0
-440 -97 0 c-54 1 -104 2 -110 3 -9 2 -13 51 -15 190 l-3 187 -192 0 c-106 -1
-195 -3 -197 -6 -3 -3 -7 -85 -9 -183 -3 -135 -7 -180 -17 -186 -7 -5 -60 -8
-116 -7 -77 0 -105 4 -108 14 -3 8 -5 204 -3 436 l2 422 118 3 c90 2 117 0
117 -10 0 -7 2 -91 3 -186 2 -136 6 -175 17 -182 8 -5 96 -8 197 -8 143 1 183
4 187 15 3 7 6 94 6 192 1 99 3 181 5 183 2 1 51 3 109 3 l106 1 0 -441z"/>
<path d="M2740 5492 c-8 -4 -16 -13 -18 -20 -1 -8 -3 -192 -3 -409 0 -313 3
-398 13 -404 7 -5 351 -9 763 -9 936 0 1163 -2 1177 -11 7 -5 11 -291 12 -973
2 -686 5 -969 13 -977 12 -12 823 -17 841 -5 6 3 11 68 12 143 5 328 1 2656
-5 2661 -9 9 -2786 13 -2805 4z"/>
<path d="M1533 4302 c-10 -6 -12 -308 -10 -1424 1 -779 5 -1419 9 -1423 9 -9
2767 -10 2796 -1 l22 7 0 434 -1 433 -27 5 c-15 3 -389 6 -832 7 -443 1 -872
2 -955 3 l-150 2 -1 140 c-1 77 -3 504 -5 950 -2 445 -5 824 -7 842 l-4 32
-412 1 c-226 0 -417 -4 -423 -8z"/>
<path d="M2805 4300 l-60 -5 -3 -779 c-1 -429 0 -792 3 -807 l6 -27 102 -2
c250 -5 1479 -1 1485 5 12 11 14 1597 2 1609 -10 10 -1415 16 -1535 6z m962
-354 c2 -2 5 -25 6 -52 4 -68 10 -74 73 -74 l54 0 1 -32 c1 -40 8 -80 15 -87
3 -3 26 -7 51 -8 26 -1 51 -7 57 -13 13 -13 17 -597 4 -622 -8 -16 -24 -18
-123 -18 -80 0 -116 4 -122 13 -4 6 -8 48 -9 92 -1 44 -3 97 -3 118 l-1 37
-190 0 c-145 0 -190 -3 -191 -12 -1 -7 -3 -59 -4 -115 -2 -57 -5 -110 -9 -118
-4 -12 -26 -15 -113 -15 -59 0 -114 4 -122 9 -12 8 -14 63 -13 316 0 170 5
312 9 316 5 5 28 10 51 11 57 2 64 9 68 64 1 27 3 52 3 57 1 4 26 7 56 7 64 0
75 13 75 84 0 34 4 45 18 48 22 4 354 -1 359 -6z"/>
<path d="M3531 3821 c-7 -5 -16 -35 -20 -67 l-6 -58 -55 -4 c-30 -2 -57 -6
-60 -8 -3 -3 -5 -57 -5 -120 0 -91 4 -117 15 -124 8 -5 95 -10 193 -10 l177 0
0 129 0 128 -56 6 c-31 3 -58 8 -61 10 -2 3 -6 28 -7 56 -2 28 -6 54 -10 58
-9 10 -90 13 -105 4z"/>
<path d="M4914 2332 c-182 -2 -202 -4 -206 -20 -8 -30 -3 -1590 5 -1598 8 -9
1540 -9 1554 -1 6 4 11 74 13 164 5 326 1 1413 -5 1433 -6 19 -15 20 -178 21
-95 0 -354 1 -577 2 -223 1 -496 1 -606 -1z m351 -338 c8 -3 12 -42 14 -122 1
-64 6 -121 10 -125 4 -4 28 -8 53 -9 25 0 50 -3 56 -7 6 -3 12 -30 14 -60 5
-65 22 -74 118 -62 6 0 10 22 10 47 0 69 10 80 71 83 29 1 55 3 57 6 4 3 8 88
11 228 l1 28 123 -3 122 -3 5 -50 c3 -27 4 -82 2 -122 -4 -80 -5 -81 -79 -85
-24 -1 -44 -7 -44 -12 -1 -6 -3 -28 -4 -48 -4 -62 -9 -68 -63 -68 -26 0 -53
-5 -60 -12 -14 -14 -16 -104 -2 -113 5 -3 32 -7 60 -9 28 -2 53 -6 55 -8 3 -3
7 -28 8 -56 2 -29 6 -55 9 -58 3 -3 31 -8 62 -11 l56 -6 0 -123 0 -124 -37 -1
c-84 -4 -204 -1 -209 4 -3 3 -7 58 -8 122 -2 76 -7 119 -14 124 -7 4 -33 8
-59 10 -26 1 -50 4 -53 7 -3 3 -7 31 -10 62 l-5 57 -52 3 c-59 3 -68 -6 -72
-72 -1 -22 -4 -43 -7 -48 -3 -4 -27 -8 -53 -8 -28 0 -53 -6 -60 -13 -6 -8 -11
-61 -12 -126 -2 -93 -5 -114 -18 -119 -23 -9 -219 -7 -228 2 -5 4 -8 61 -8
127 l-1 119 51 0 c68 0 77 8 79 69 1 28 6 54 9 58 4 4 30 8 58 9 28 2 54 5 56
8 7 7 5 105 -2 117 -4 5 -28 9 -54 9 -55 0 -70 12 -66 55 1 17 -2 40 -6 53 -7
19 -16 22 -63 22 -48 0 -54 3 -59 23 -5 18 -3 185 2 224 1 8 34 12 112 12 61
-1 117 -3 124 -5z"/>
</g>
</svg>
